<svg width="30" height="30" viewBox="0 0 30 30" fill="none" xmlns="http://www.w3.org/2000/svg">
<path d="M27.1875 25.8619L20.1075 18.7819C21.8088 16.7394 22.6572 14.1196 22.4762 11.4674C22.2952 8.8153 21.0986 6.33507 19.1355 4.54269C17.1724 2.75031 14.5938 1.78377 11.9362 1.84416C9.27856 1.90455 6.74654 2.9872 4.86684 4.8669C2.98714 6.7466 1.90448 9.27862 1.8441 11.9362C1.78371 14.5938 2.75024 17.1724 4.54263 19.1356C6.33501 21.0987 8.81524 22.2952 11.4674 22.4763C14.1195 22.6573 16.7393 21.8089 18.7818 20.1075L25.8618 27.1875L27.1875 25.8619ZM3.74996 12.1875C3.74996 10.5187 4.24481 8.88743 5.17193 7.49989C6.09906 6.11235 7.41681 5.0309 8.95856 4.39228C10.5003 3.75367 12.1968 3.58658 13.8335 3.91214C15.4702 4.2377 16.9737 5.0413 18.1537 6.2213C19.3337 7.40131 20.1373 8.90473 20.4628 10.5414C20.7884 12.1782 20.6213 13.8747 19.9827 15.4164C19.3441 16.9582 18.2626 18.2759 16.8751 19.203C15.4875 20.1302 13.8562 20.625 12.1875 20.625C9.95045 20.6225 7.80578 19.7328 6.22398 18.151C4.64218 16.5692 3.75244 14.4245 3.74996 12.1875Z" fill="#34343E"/>
</svg>
